<svg xmlns="http://www.w3.org/2000/svg" viewBox="0 0 24 24" id="health"><path d="M18,7.25h-1.46l-.6-1.8c-.24-.72-.91-1.2-1.66-1.2h-4.56c-.75,0-1.42,.48-1.66,1.2l-.6,1.8h-1.46c-2.07,0-3.75,1.68-3.75,3.75v6c0,2.07,1.68,3.75,3.75,3.75h12c2.07,0,3.75-1.68,3.75-3.75v-6c0-2.07-1.68-3.75-3.75-3.75Zm-8.52-1.33c.03-.1,.13-.17,.24-.17h4.56c.11,0,.2,.07,.24,.17l.44,1.33h-5.92l.44-1.33Zm10.77,11.08c0,1.24-1.01,2.25-2.25,2.25H6c-1.24,0-2.25-1.01-2.25-2.25v-6c0-1.24,1.01-2.25,2.25-2.25h12c1.24,0,2.25,1.01,2.25,2.25v6Z"></path><path d="M14,13.25h-1.25v-1.25c0-.41-.34-.75-.75-.75s-.75,.34-.75,.75v1.25h-1.25c-.41,0-.75,.34-.75,.75s.34,.75,.75,.75h1.25v1.25c0,.41,.34,.75,.75,.75s.75-.34,.75-.75v-1.25h1.25c.41,0,.75-.34,.75-.75s-.34-.75-.75-.75Z"></path></svg>