<svg xmlns="http://www.w3.org/2000/svg" data-name="Layer 1" viewBox="0 0 512 512" id="healthcare"><path d="M281.82,182.48V157.82h24.66a11.58,11.58,0,0,0,11.57-11.57v-28.5a11.58,11.58,0,0,0-11.57-11.57H281.82V81.51a11.58,11.58,0,0,0-11.57-11.57h-28.5a11.58,11.58,0,0,0-11.57,11.57v24.67H205.52A11.58,11.58,0,0,0,194,117.75v28.5a11.58,11.58,0,0,0,11.57,11.57h24.66v24.66a11.58,11.58,0,0,0,11.57,11.57h28.5A11.58,11.58,0,0,0,281.82,182.48Zm-15-28.09v24.66H245.18V154.39a11.58,11.58,0,0,0-11.57-11.57H209V121.18h24.66a11.58,11.58,0,0,0,11.57-11.58V84.94h21.64V109.6a11.58,11.58,0,0,0,11.57,11.58h24.66v21.64H278.39A11.58,11.58,0,0,0,266.82,154.39ZM484.36,432.27l-32.62-9.94a8.26,8.26,0,0,1-5.86-7.9v-2.95a41,41,0,0,0,13-29.94V368.83l5-21.45a34.66,34.66,0,0,0-28-42.12c-4.08-.68-8.16-1.43-12.12-2.23l-2.67-.55a79.57,79.57,0,0,0-16.58-2.19h-.37a34.6,34.6,0,0,0-33.7,42.59l6.13,26.06v12.6a41,41,0,0,0,12.53,29.53v3.47a8.23,8.23,0,0,1-5.85,7.9l-23.82,7.26a46.91,46.91,0,0,0-21-13.31L297.83,404a12.15,12.15,0,0,1-8.23-8.67,12.48,12.48,0,0,1-.35-3c-.07-4.16-.22-9.2-.4-15.44,8-11.15,12.71-25,12.71-36.24V335.4a7.5,7.5,0,0,0,1-2.47l3.3-15.21,2.63-12.17a43.63,43.63,0,0,0-6.19-33.31,38.16,38.16,0,0,0-25-16.71l-1.25-.24L381.16,150.23A88,88,0,0,0,256.71,25.77a1,1,0,0,1-1.42,0L250,31.08l5.3-5.31A88,88,0,0,0,130.84,150.23L231.27,250.65A38,38,0,0,0,212,263.46,43.69,43.69,0,0,0,203.49,300l7,32.24v8.45c0,11.56,5,26,13.5,37.3q-.85,6.88-1.69,13.75a6.8,6.8,0,0,0-.06.9,12.1,12.1,0,0,1-8.56,11.57l-20.82,6.34-.2.06-6.92,2.11L157.33,404a12,12,0,0,1-8-7.9,93.16,93.16,0,0,0,14-32.51,43,43,0,0,0,.27-15.81,51.42,51.42,0,0,0,1.22-6.5l2.49-10.62a52.18,52.18,0,0,0-22.38-56,30.59,30.59,0,0,0,.7-6.5A30.17,30.17,0,1,0,86,274.62a52.19,52.19,0,0,0-22.42,56q1.23,5.33,2.5,10.64a52.45,52.45,0,0,0,2.44,10.83,47.18,47.18,0,0,0,.41,9.37c1.49,10.61,6.29,23,12.63,32.83a12,12,0,0,1-8.43,9.85L52.34,410.5l-.2.06-19,5.82A46.44,46.44,0,0,0,0,461.05V504.5a7.5,7.5,0,0,0,15,0V461.05a31.55,31.55,0,0,1,22.46-30.33L56.33,425l.2-.06,5.24-1.59C70.68,432,89,446,115.8,447.76q2.81.18,5.52.18a82.05,82.05,0,0,0,22-3,47.13,47.13,0,0,0-2.83,16.11V504.5a7.5,7.5,0,0,0,15,0V461.05A31.55,31.55,0,0,1,178,430.72l13.91-4.24,20.79,23.76a14.46,14.46,0,0,0,20,1.75l15.83-12.74V504.5a7.5,7.5,0,0,0,15,0V439.79L278.66,452a14.46,14.46,0,0,0,20-1.73l21-23.92,14.41,4.4a31.34,31.34,0,0,1,16.59,12l0,0h0a31.46,31.46,0,0,1,5.84,18.32V504.5a7.5,7.5,0,0,0,15,0V461.06a46.4,46.4,0,0,0-3.71-18.24l5.66-1.73A70.49,70.49,0,0,0,417,460.36c1.53.1,3,.15,4.52.15,22.56,0,38.77-11.19,46.23-17.63L480,446.61a23.88,23.88,0,0,1,17,23V504.5a7.5,7.5,0,0,0,15,0V469.58A38.79,38.79,0,0,0,484.36,432.27ZM115.5,253a15.17,15.17,0,0,1,15.16,15.15,52.54,52.54,0,0,0-13.29-2l-1.49,0a53,53,0,0,0-15.54,2A15.17,15.17,0,0,1,115.5,253ZM78.19,327.12a37.49,37.49,0,0,1,37.39-46l1.47,0a37.45,37.45,0,0,1,35.69,46.11v.05c-4.74-3.55-10.76-4.31-15.4-4.9-1-.12-1.89-.24-2.79-.38-6.16-1-11.43-3.09-14.79-6-1-.85-4.77-4.67-6.19-6.3-.06-.13-.13-.26-.2-.39a7.5,7.5,0,0,0-10.23-2.8Q86.84,315.85,78.19,327.12Zm70.46,33.56c-3,14.8-16.22,41.28-32.14,41.33h-.06c-9.45,0-16.85-7.89-21.39-14.53a71.73,71.73,0,0,1-11.25-28.11c-2-14.08,4.85-25.8,21.44-36.56,1.64,1.68,3.92,3.93,4.69,4.59,7,6,16,8.47,22.29,9.45,1,.16,2.12.29,3.22.43,3.18.4,7.53,1,8.63,2.36C148.59,345.37,150.21,352.84,148.65,360.68Zm-31.87,72.11a69.59,69.59,0,0,1-38.15-14.67,26.91,26.91,0,0,0,11.71-8.05,27.88,27.88,0,0,0,2.09-2.89c7.29,6.47,15.43,9.83,24,9.83h.12c7.78,0,15.28-3.09,22.15-8.93.46.64.94,1.28,1.46,1.89A27,27,0,0,0,153,418.36l7.49,2.29C150.94,427,135.79,434.05,116.78,432.79Zm24.67-293.17A73,73,0,0,1,244.69,36.38a16,16,0,0,0,22.62,0A73,73,0,0,1,370.55,139.62L264.84,245.33a12.51,12.51,0,0,1-17.68,0Zm78.29,164.5-1.59-7.35a28.54,28.54,0,0,1,5.48-23.86,22,22,0,0,1,17.26-8.56h.55c5.56.08,9.61,1,15.73,2.36l3.05.68c4.72,1,9.58,2,14.44,2.9a23.32,23.32,0,0,1,15.18,10.28,28.5,28.5,0,0,1,4,21.8l-.51,2.39c-4.56-3.51-9.42-4-13.4-4.33-3.31-.31-5.92-.54-8.54-2.37-12.55-8.73-22.91-3.65-30.53,1.76-1.9,1.34-4.06,1.41-7.71,1.42S224.41,301.27,219.74,304.12Zm66.82,27.28v9.24c0,17.15-15.39,41-30.55,41s-30.54-23.86-30.54-41V326.49a5.06,5.06,0,0,0,0-.55c-.32-4.42.31-7.54,1.78-8.78,1-.82,2.57-.91,6-.92,4.42,0,10.47,0,16.33-4.19,3.64-2.57,6.06-3.68,8.19-3.68a8.89,8.89,0,0,1,5.1,2c5.87,4.08,11.57,4.6,15.74,5,3.52.32,4.85.52,5.95,1.54,2.05,1.91,2.25,6,2.05,9.11,0,.16,0,.31,0,.47v4.79s0,0,0,.06S286.56,331.38,286.56,331.4ZM223.63,440l-16-18.32L218,418.5a26.86,26.86,0,0,0,7.41-3.57L242.25,425Zm32-24.41L235,403.2a27.19,27.19,0,0,0,2.19-10.12l.27-2.19a32.67,32.67,0,0,0,36.74.21c0,.49,0,1,0,1.43A27,27,0,0,0,275,399a26.54,26.54,0,0,0,1.4,4.14Zm32,24.42-18.62-15,17-10.22a27,27,0,0,0,7.38,3.55l10.43,3.19ZM386.54,346,385,339.44a19.63,19.63,0,0,1,3.79-16.82A19.27,19.27,0,0,1,404,315.29h.42c4.82.06,8.33.78,13.63,1.88l2.74.56c4.13.83,8.37,1.62,12.62,2.33A19.65,19.65,0,0,1,449.28,344l-.43,1.84a24.24,24.24,0,0,0-9.87-2.57c-3.14-.31-5-.55-7-2-13.21-9.79-24.22-1.47-28.37,1.66-1.41,1.06-3.07,1.12-6.14,1.13S390.42,344,386.54,346Zm5,21.73c-.28-4,.26-7,1.44-8.1.61-.54,1.86-.6,4.56-.61,4.08,0,9.67,0,15.13-4.16,3.15-2.38,5.08-3.27,6.63-3.27,1.37,0,2.44.71,3.77,1.7,5.43,4,10.66,4.52,14.48,4.9,3,.3,3.9.47,4.63,1.18,1.34,1.34,2,4.33,1.71,8.43,0,.15,0,.3,0,.45v13.33a26.16,26.16,0,1,1-52.31,0V368.21C391.53,368,391.52,367.86,391.51,367.69ZM418,445.4a54.24,54.24,0,0,1-27.46-9.73,23.15,23.15,0,0,0,8.09-6.13,23.41,23.41,0,0,0,4.78-9.42,41.06,41.06,0,0,0,28.27.14,23.22,23.22,0,0,0,15.72,16.41l2.37.73A54.61,54.61,0,0,1,418,445.4Z"></path></svg>