<svg xmlns="http://www.w3.org/2000/svg" viewBox="0 0 64 64">
  <path d="M21 0C9.408 0 0 9.408 0 21s9.408 21 21 21 21-9.408 21-21S32.592 0 21 0zm0 1c11.052 0 20 8.948 20 20s-8.948 20-20 20S1 32.052 1 21 9.948 1 21 1zm.09 6.205a2.886 2.886 0 0 0-1.434.326c-.972.495-1.357 1.482-1.281 2.469H15.5a.5.5 0 0 0-.5.5V12h-3.5a.5.5 0 0 0-.156 0 .5.5 0 0 0-.344.5v22a.5.5 0 0 0 .5.5h19a.5.5 0 0 0 .5-.5v-22a.5.5 0 0 0-.5-.5H27v-1.5a.5.5 0 0 0-.5-.5h-2.781c.051-.517.005-1.034-.282-1.5-.507-.825-1.413-1.269-2.347-1.295zm-.277.98v.002c.72-.072 1.427.269 1.78.844.243.394.261.854.095 1.281a.5.5 0 0 0 .468.688H26v1.469a.5.5 0 0 0 0 .062v.031a.5.5 0 0 0 0 .061v1.375H16v-1.342a.5.5 0 0 0 0-.25v-1.408h2.844a.5.5 0 0 0 .468-.687c-.278-.709.02-1.5.813-1.905.23-.117.458-.197.688-.22zM12 13h3v1.5a.5.5 0 0 0 .5.5h11a.5.5 0 0 0 .5-.5V13h3v21H12V13zm7.9 3.994a.5.5 0 0 0-.056.006.5.5 0 0 0-.344.5v2h-2a.5.5 0 0 0-.5.5v2a.5.5 0 0 0 .5.5h2v2a.5.5 0 0 0 .5.5h2a.5.5 0 0 0 .5-.5v-2h2a.5.5 0 0 0 .5-.5v-2a.5.5 0 0 0-.5-.5h-2v-2a.5.5 0 0 0-.5-.5h-2a.5.5 0 0 0-.1-.006zM20.5 18h1v2a.5.5 0 0 0 .5.5h2v1h-2a.5.5 0 0 0-.5.5v2h-1v-2a.5.5 0 0 0-.5-.5h-2v-1h2a.5.5 0 0 0 .5-.5v-2zm-4 9v1h9v-1h-9zm0 2v1h9v-1h-9zm0 2v1h9v-1h-9z" color="#000" font-family="Sans" font-weight="400" overflow="visible" style="line-height:normal;-inkscape-font-specification:Sans;text-indent:0;text-align:start;text-decoration-line:none;text-transform:none;block-progression:tb;marker:none"/>
</svg>
