<svg xmlns="http://www.w3.org/2000/svg" data-name="Layer 2" viewBox="0 0 100 100">
  <path d="M49.01 14.88h2v-2.13h2.12v-2h-2.12V8.63h-2v2.12h-2.13v2h2.13v2.13z"/>
  <path d="M27.78 45.12a11.43 11.43 0 0 0 4.66.92 22.31 22.31 0 0 0 7.62-1.59l.27.19c.29.21.58.41.87.59l.1.06.93.53c.36.19.72.37 1.09.53a16.71 16.71 0 0 0 13.3 0 16.74 16.74 0 0 0 3.27-1.93A22.25 22.25 0 0 0 67.56 46a11.43 11.43 0 0 0 4.66-.92 8.2 8.2 0 0 0 4.3-4.08 1 1 0 0 0-.14-1c-4.44-5.86-9.26-20.91-9.76-22.48V5.62a1.05 1.05 0 0 0-.29-.71 1 1 0 0 0-.71-.29H34.38a1 1 0 0 0-.71.29 1 1 0 0 0-.29.71V17.5C33 18.9 28.1 34.11 23.62 40a1 1 0 0 0-.14 1 8.2 8.2 0 0 0 4.3 4.12zm38.84-14v-7.33c1.87 5.25 4.84 12.75 7.8 16.93-.82 1.38-4 5.14-12.74 2.23a.27.27 0 0 1 .08-.07 16.57 16.57 0 0 0 4.86-11.75zm-2-24.51v10.08H35.39V6.62zM35.38 18.69h29.24V29h-.08a10.63 10.63 0 0 1-1.31-.17l-.23-.11a8.52 8.52 0 0 1-1.18-.35l-.23-.08a7.42 7.42 0 0 1-1.05-.54l-.14-.09a7 7 0 0 1-.95-.75 8.07 8.07 0 0 1-2.17-5.16 1 1 0 0 0-.67-.95 1.25 1.25 0 0 0-.32-.05 1.06 1.06 0 0 0-.36.09h-.09a1 1 0 0 0-.32.25 11 11 0 0 1-.85 1l-.16.16c-.29.28-.61.56-.94.82l-.2.16c-.34.26-.7.52-1.07.76l-.1.06c-.36.23-.74.45-1.13.66l-.18.1c-.4.21-.8.41-1.22.6l-.25.11c-.41.19-.84.37-1.27.54l-.18.07c-.41.16-.83.31-1.25.45l-.15.05c-.44.15-.88.28-1.32.41l-.26.08-1.29.35-.22.05-1.26.3h-.07c-.43.1-.84.18-1.25.26l-.23.05-1.14.2h-.2l-1.08.17h-.06l-1 .13h-.15l-.82.09h-.15l-.66.07zm0 12.2h.11l.55-.05h.17l.61-.06h.19l.83-.1h.24l.94-.14h.23l1.07-.18h.1l1.12-.36.22-.05 1.24-.24.26-.07c.42-.09.83-.19 1.25-.3l.2-.06q.63-.16 1.26-.36h.11c.44-.13.88-.27 1.31-.42l.25-.09c.42-.15.85-.3 1.27-.47l.24-.09c.43-.18.86-.36 1.29-.56l.1-.05c.42-.19.82-.39 1.22-.61l.16-.08c.4-.21.79-.44 1.17-.68l.22-.14c.37-.24.74-.49 1.09-.75l.17-.13c.36-.28.72-.57 1-.87A9.33 9.33 0 0 0 58 28.31a7.68 7.68 0 0 0 .68.6l.24.17c.16.12.32.24.49.35l.31.18.49.27.35.16.5.2.39.14.52.16.42.1.55.12.44.07.59.07h.65v.18a14.65 14.65 0 0 1-8.77 13.4 14.71 14.71 0 0 1-11.71 0c-.32-.14-.62-.28-.93-.45l-.86-.48-.07-.05c-.26-.16-.51-.33-.8-.54l-.29-.22c-.2-.14-.39-.3-.6-.48s-.38-.32-.62-.55c-.09-.07-.16-.15-.24-.22l-.07-.08c-.2-.19-.39-.39-.58-.61s-.41-.48-.6-.72a.24.24 0 0 0-.06-.08c-.18-.23-.36-.46-.54-.74s-.25-.38-.38-.6-.23-.39-.34-.6-.23-.42-.33-.63-.2-.44-.29-.66a12.76 12.76 0 0 1-.47-1.27c-.09-.27-.17-.55-.23-.81v-.21c0-.14-.07-.27-.11-.47s-.07-.37-.1-.58-.09-.59-.12-.91 0-.43-.05-.68 0-.49 0-.74zm-2-7.1v8.19c0 .31 0 .55.06.78s.08.69.13 1a6.9 6.9 0 0 0 .12.69l.12.54.05.21c.09.33.17.65.28 1 .18.56.35 1 .53 1.44.11.24.21.48.33.72s.24.49.38.74.25.46.38.67.28.45.43.67.4.57.63.87l.06.07c.21.28.44.56.68.83s.44.48.66.71l.71-.71-.62.78c-8.8 2.92-11.94-.85-12.75-2.23 2.98-4.22 5.95-11.76 7.82-16.97zm-15 64.64A84.58 84.58 0 0 0 50 94.72a84.58 84.58 0 0 0 31.62-6.29 1 1 0 0 0 .63-.93v-14a24.53 24.53 0 0 0-22.84-24.44h-.27l-.21.07h-.1c-5.94 3.53-11.72 3.53-17.66 0a.32.32 0 0 0-.09 0 .7.7 0 0 0-.23-.08h-.26A24.53 24.53 0 0 0 17.75 73.5v14a1 1 0 0 0 .63.93zm41.68-37.31a22.19 22.19 0 0 1 6.57 1.73l-7.82 10.81a1 1 0 0 0 0 1.13l2.44 3.82-9.13 9.13zM50 53.83a18.28 18.28 0 0 0 7.7-1.78L50 77.76l-7.7-25.71a18.28 18.28 0 0 0 7.7 1.78zm-10.06-2.71 8 26.62-9.13-9.13 2.44-3.82a1 1 0 0 0 0-1.13l-7.88-10.81a22.19 22.19 0 0 1 6.57-1.73zM19.75 73.5a22.54 22.54 0 0 1 11.8-19.77l7.62 10.55-2.51 3.93a1 1 0 0 0 .13 1.25L49.29 82h.05a.74.74 0 0 0 .22.14l.09.05a.91.91 0 0 0 .7 0l.09-.05a.74.74 0 0 0 .22-.14h.05l12.5-12.5a1 1 0 0 0 .13-1.25l-2.51-3.93 7.62-10.55a22.54 22.54 0 0 1 11.8 19.73v13.32a80.56 80.56 0 0 1-60.5 0z"/>
  <path d="M68.75 88.63A7.26 7.26 0 0 0 76 81.38V72.9a1 1 0 0 0-1-1H62.5a1 1 0 0 0-1 1v8.48a7.26 7.26 0 0 0 7.25 7.25ZM63.5 73.9H74v7.48a5.25 5.25 0 0 1-10.5 0Z"/>
</svg>
