<svg xmlns="http://www.w3.org/2000/svg" data-name="Layer 1" viewBox="0 0 53 53">
  <path d="M8.75 29.17a1 1 0 0 0 .7.32 1 1 0 0 0 .68-.27l.27-.25 2.75 2.93a2.9 2.9 0 0 0 .14 3.92 2.84 2.84 0 0 0 1.86.83 2.9 2.9 0 0 0 .85 1.86 2.86 2.86 0 0 0 1.86.83 2.9 2.9 0 0 0 .83 1.86 2.86 2.86 0 0 0 1.86.83 2.9 2.9 0 0 0 4.94 1.86l.35-.35.33.34a2.93 2.93 0 0 0 4.15 0 2.88 2.88 0 0 0 .85-1.88 2.9 2.9 0 0 0 1.9-.85 2.86 2.86 0 0 0 .84-1.89 2.93 2.93 0 0 0 1.9-.84 3 3 0 0 0 .84-1.9 2.91 2.91 0 0 0 2.75-2.92 2.9 2.9 0 0 0-.51-1.6l2.93-2.84.32.37a1 1 0 0 0 .75.34 1 1 0 0 0 .66-.25l6.61-5.81a1 1 0 0 0 .09-1.41L38.17 8.6a1 1 0 0 0-1.42-.09l-6.6 5.8a1 1 0 0 0-.34.69 1 1 0 0 0 .25.72l.52.6h-.38a11.62 11.62 0 0 0-5.39 2.13L23.35 17l.23-.21a1 1 0 0 0 .06-1.42l-6-6.44a1 1 0 0 0-.64-.34 1 1 0 0 0-.72.26L2.82 21.31a1 1 0 0 0 0 1.41Zm6 4 1.38-1.38a.9.9 0 0 1 1.54.63.9.9 0 0 1-.26.64L16 34.41a.9.9 0 0 1-1.27 0 .91.91 0 0 1 .01-1.28Zm2.42 3.33a.91.91 0 0 1 .27-.64l1.38-1.38a.89.89 0 0 1 1.28 0 .88.88 0 0 1 .26.63.9.9 0 0 1-.26.64l-1.4 1.35a.91.91 0 0 1-1.54-.64Zm2.69 2.69a.91.91 0 0 1 .27-.64l1.38-1.38a.89.89 0 0 1 1.28 0 .88.88 0 0 1 .26.63.9.9 0 0 1-.26.64l-1.39 1.39a.9.9 0 0 1-1.27 0 .91.91 0 0 1-.28-.68Zm3 3.33a.89.89 0 0 1 0-1.28l1.38-1.38a.89.89 0 0 1 1.28 0 .91.91 0 0 1 0 1.27l-.33.33-1.06 1.06a.9.9 0 0 1-1.32-.04Zm14.46-31.85 10.77 12.25L43 27.41 32.22 15.16Zm-6.88 7.68 1.33-.16a.9.9 0 0 0 .28-.08h.08l8.36 9.52-3 2.88-8.12-8.54a1 1 0 0 0-1.25-.16L26 23.16a4.86 4.86 0 0 1-4.42.36l4.19-3.25a9.55 9.55 0 0 1 4.67-1.92ZM23.2 19.7l-3.08 2.39a1.82 1.82 0 0 0-.71 1.65 1.85 1.85 0 0 0 1 1.48 6.9 6.9 0 0 0 6.59-.37l1.51-.94 8.25 8.68.33.33a.9.9 0 0 1 .27.66.91.91 0 0 1-.27.66.94.94 0 0 1-1.32 0 1 1 0 0 0-1.42 1.41.93.93 0 0 1-1.28 1.35 1 1 0 0 0-1.42 1.42.93.93 0 0 1 0 1.32 1 1 0 0 1-1.33 0 1 1 0 0 0-1.41 1.41.94.94 0 0 1-1.32 1.33l-.38-.38a2.89 2.89 0 0 0-.34-3.69 2.91 2.91 0 0 0-1.87-.84 2.87 2.87 0 0 0-2.7-2.69 2.79 2.79 0 0 0-2.68-2.66 2.89 2.89 0 0 0-.84-1.89 3 3 0 0 0-4.1 0l-.14.14-2.64-2.86 10-9.27ZM16.87 11l4.62 5L9.8 26.83l-.25.24-4.63-5Z"/>
</svg>
