<svg xmlns="http://www.w3.org/2000/svg" viewBox="0 0 100 100">
  <path d="M93.1 57.6c-.9-.8-1.9-1.3-3.1-1.5V48c0-9.2-5.3-17.5-13.4-21.5 1.8-2.5 2.6-5.6 2.3-8.8C78.3 11.3 73 6.3 66.6 6c-3.6-.2-7 1.1-9.6 3.6-2.6 2.5-4 5.8-4 9.4 0 2.7.8 5.3 2.4 7.5-5.6 2.8-9.9 7.6-12 13.4-1.2-.9-2.5-1.7-3.8-2.4 1.8-2.5 2.6-5.6 2.3-8.8-.6-6.4-6-11.4-12.4-11.6-3.6-.2-7 1.1-9.6 3.6-2.6 2.5-4 5.8-4 9.4 0 2.7.8 5.3 2.4 7.5C10.3 41.5 5 49.8 5 59v12c0 3.3 2.7 6 6 6h28v11c0 3.3 2.7 6 6 6h44c3.3 0 6-2.7 6-6V62c0-1.7-.7-3.2-1.9-4.4zM59.4 29.1c.7-.2 1.2-.8 1.3-1.5s-.1-1.4-.6-1.9c-1.9-1.7-3-4.2-3-6.7s1-4.8 2.8-6.5c1.7-1.6 3.9-2.5 6.2-2.5h.4c4.4.2 8.1 3.6 8.5 8 .3 2.9-.8 5.7-3 7.7-.5.5-.8 1.2-.6 1.9s.6 1.3 1.3 1.5C80.6 31.9 86 39.5 86 48v8H52.8c-.6-5-2.8-9.6-6.1-13.2 1.7-6.3 6.4-11.5 12.7-13.7zM87.5 60 68.3 76.3c-.8.6-1.8.6-2.6 0L46.5 60h41zM39 62v11H11c-1.1 0-2-.9-2-2V59c0-8.5 5.4-16.1 13.4-18.9.7-.2 1.2-.8 1.3-1.5s-.1-1.4-.6-1.9c-1.9-1.7-3-4.2-3-6.7s1-4.8 2.8-6.5c1.7-1.6 3.9-2.5 6.2-2.5h.4c4.4.2 8.1 3.6 8.5 8 .3 2.9-.8 5.7-3 7.7-.5.5-.8 1.2-.6 1.9s.6 1.3 1.3 1.5c7 2.5 12.1 8.6 13.2 15.9H45c-1.5 0-3 .6-4.1 1.6-1.2 1.2-1.9 2.7-1.9 4.4zm52 26c0 1.1-.9 2-2 2H45c-1.1 0-2-.9-2-2V62.3l20.1 17c1.1 1 2.5 1.4 3.9 1.4s2.8-.5 3.9-1.4l20.1-17V88z"/>
</svg>
