<svg xmlns="http://www.w3.org/2000/svg" enable-background="new 0 0 1024 1024" viewBox="0 0 1024 1024" id="health-insurance-card"><g><path d="M458,496v-64c0-5.52-4.48-10-10-10h-70v-70c0-5.52-4.48-10-10-10h-64c-5.52,0-10,4.48-10,10v70h-70c-5.52,0-10,4.48-10,10
		v64c0,5.52,4.48,10,10,10h70v70c0,5.52,4.48,10,10,10h64c5.52,0,10-4.48,10-10v-70h70C453.52,506,458,501.52,458,496z M438,486h-70
		c-5.52,0-10,4.48-10,10v70h-44v-70c0-5.52-4.48-10-10-10h-70v-44h70c5.52,0,10-4.48,10-10v-70h44v70c0,5.52,4.48,10,10,10h70V486z"></path><path d="M864.75,246h-42.48l-49.25-104.95c-9.66-20.59-34.28-29.48-54.87-19.82L452.26,246H159.25
		c-22.75,0-41.25,18.51-41.25,41.25v449.49c0,22.75,18.51,41.25,41.25,41.25h42.3l49.08,104.71c4.68,9.98,12.96,17.54,23.32,21.29
		c4.58,1.66,9.33,2.48,14.06,2.48c5.97,0,11.92-1.31,17.48-3.92L571.25,778h293.5c22.75,0,41.25-18.51,41.25-41.25V287.25
		C906,264.51,887.49,246,864.75,246z M726.63,139.33c10.61-4.98,23.29-0.4,28.27,10.21L800.17,246H499.34L726.63,139.33z
		 M297.01,884.45c-5.14,2.41-10.91,2.67-16.25,0.74c-5.34-1.93-9.61-5.83-12.02-10.97L223.64,778h300.48L297.01,884.45z M886,736.75
		c0,11.72-9.54,21.25-21.25,21.25H569.02H207.91h-48.66c-11.72,0-21.25-9.54-21.25-21.25V287.25c0-11.72,9.54-21.25,21.25-21.25
		h295.24h361.42h48.83c11.72,0,21.25,9.54,21.25,21.25V736.75z"></path><rect width="256" height="20" x="544" y="454"></rect><rect width="256" height="20" x="544" y="374"></rect><rect width="128" height="20" x="544" y="534"></rect><rect width="96" height="20" x="224" y="662"></rect><rect width="96" height="20" x="384" y="662"></rect><rect width="96" height="20" x="544" y="662"></rect><rect width="96" height="20" x="704" y="662"></rect></g></svg>