<svg xmlns="http://www.w3.org/2000/svg" viewBox="0 0 1024 1024">
  <path d="M458 496v-64c0-5.52-4.48-10-10-10h-70v-70c0-5.52-4.48-10-10-10h-64c-5.52 0-10 4.48-10 10v70h-70c-5.52 0-10 4.48-10 10v64c0 5.52 4.48 10 10 10h70v70c0 5.52 4.48 10 10 10h64c5.52 0 10-4.48 10-10v-70h70c5.52 0 10-4.48 10-10zm-20-10h-70c-5.52 0-10 4.48-10 10v70h-44v-70c0-5.52-4.48-10-10-10h-70v-44h70c5.52 0 10-4.48 10-10v-70h44v70c0 5.52 4.48 10 10 10h70v44z"/>
  <path d="M864.75 246h-42.48l-49.25-104.95c-9.66-20.59-34.28-29.48-54.87-19.82L452.26 246H159.25C136.5 246 118 264.51 118 287.25v449.49c0 22.75 18.51 41.25 41.25 41.25h42.3l49.08 104.71c4.68 9.98 12.96 17.54 23.32 21.29a41.22 41.22 0 0 0 14.06 2.48c5.97 0 11.92-1.31 17.48-3.92L571.25 778h293.5c22.75 0 41.25-18.51 41.25-41.25v-449.5c0-22.74-18.51-41.25-41.25-41.25zM726.63 139.33c10.61-4.98 23.29-.4 28.27 10.21L800.17 246H499.34l227.29-106.67zM297.01 884.45c-5.14 2.41-10.91 2.67-16.25.74a21.126 21.126 0 0 1-12.02-10.97L223.64 778h300.48L297.01 884.45zM886 736.75c0 11.72-9.54 21.25-21.25 21.25h-705.5c-11.72 0-21.25-9.54-21.25-21.25v-449.5c0-11.72 9.54-21.25 21.25-21.25H864.74c11.72 0 21.25 9.54 21.25 21.25v449.5z"/>
  <path d="M544 454h256v20H544zM544 374h256v20H544zM544 534h128v20H544zM224 662h96v20h-96zM384 662h96v20h-96zM544 662h96v20h-96zM704 662h96v20h-96z"/>
</svg>
