<svg xmlns="http://www.w3.org/2000/svg" viewBox="0 0 30 20">
  <path d="M0 0h30v20H0z"/>
  <path fill="#b22234" d="M1 1h28v1.385H1z"/>
  <path fill="#fff" d="M1 2.385h28V3.77H1z"/>
  <path fill="#b22234" d="M1 3.77h28v1.385H1z"/>
  <path fill="#fff" d="M1 5.155h28V6.54H1z"/>
  <path fill="#b22234" d="M1 6.54h28v1.385H1z"/>
  <path fill="#fff" d="M1 7.925h28V9.31H1z"/>
  <path fill="#b22234" d="M1 9.31h28v1.385H1z"/>
  <path fill="#fff" d="M1 10.695h28v1.385H1z"/>
  <path fill="#b22234" d="M1 12.08h28v1.385H1z"/>
  <path fill="#fff" d="M1 13.465h28v1.385H1z"/>
  <path fill="#b22234" d="M1 14.85h28v1.385H1z"/>
  <path fill="#fff" d="M1 16.235h28v1.385H1z"/>
  <path fill="#3c3b6e" d="M1 1h14v9.695H1z"/>
  <path fill="#fff" d="m2.5 2.488-.325.235.123-.382-.324-.242h.401l.125-.376.125.376h.401l-.324.242.123.382zM4.7 2.488l-.325.235.123-.382-.324-.242h.401l.125-.376.125.376h.401l-.324.242.123.382zM6.9 2.488l-.325.235.123-.382-.324-.242h.401l.125-.376.125.376h.401l-.324.242.123.382zM9.1 2.488l-.325.235.123-.382-.324-.242h.401l.125-.376.125.376h.401l-.324.242.123.382zM11.3 2.488l-.325.235.123-.382-.324-.242h.401l.125-.376.125.376h.401l-.324.242.123.382zM13.5 2.488l-.325.235.123-.382-.324-.242h.401l.125-.376.125.376h.401l-.324.242.123.382zM3.6 3.697l-.325.234.123-.381-.324-.243h.401l.125-.376.125.376h.401l-.324.243.123.381zM5.8 3.697l-.325.234.123-.381-.324-.243h.401l.125-.376.125.376h.401l-.324.243.123.381zM8 3.697l-.325.234.123-.381-.324-.243h.401L8 2.931l.125.376h.401l-.324.243.123.381zM10.2 3.697l-.325.234.123-.381-.324-.243h.401l.125-.376.125.376h.401l-.324.243.123.381zM12.4 3.697l-.325.234.123-.381-.324-.243h.401l.125-.376.125.376h.401l-.324.243.123.381z"/>
  <g fill="#fff">
    <path d="m2.5 4.905-.325.235.123-.382-.324-.243h.401L2.5 4.14l.125.375h.401l-.324.243.123.382zM4.7 4.905l-.325.235.123-.382-.324-.243h.401L4.7 4.14l.125.375h.401l-.324.243.123.382zM6.9 4.905l-.325.235.123-.382-.324-.243h.401L6.9 4.14l.125.375h.401l-.324.243.123.382zM9.1 4.905l-.325.235.123-.382-.324-.243h.401L9.1 4.14l.125.375h.401l-.324.243.123.382zM11.3 4.905l-.325.235.123-.382-.324-.243h.401l.125-.375.125.375h.401l-.324.243.123.382zM13.5 4.905l-.325.235.123-.382-.324-.243h.401l.125-.375.125.375h.401l-.324.243.123.382z"/>
  </g>
  <g fill="#fff">
    <path d="m3.6 6.113-.325.235.123-.382-.324-.242h.401l.125-.376.125.376h.401l-.324.242.123.382zM5.8 6.113l-.325.235.123-.382-.324-.242h.401l.125-.376.125.376h.401l-.324.242.123.382zM8 6.113l-.325.235.123-.382-.324-.242h.401L8 5.348l.125.376h.401l-.324.242.123.382zM10.2 6.113l-.325.235.123-.382-.324-.242h.401l.125-.376.125.376h.401l-.324.242.123.382zM12.4 6.113l-.325.235.123-.382-.324-.242h.401l.125-.376.125.376h.401l-.324.242.123.382z"/>
  </g>
  <g fill="#fff">
    <path d="m2.5 7.322-.325.234.123-.381-.324-.243h.401l.125-.376.125.376h.401l-.324.243.123.381zM4.7 7.322l-.325.234.123-.381-.324-.243h.401l.125-.376.125.376h.401l-.324.243.123.381zM6.9 7.322l-.325.234.123-.381-.324-.243h.401l.125-.376.125.376h.401l-.324.243.123.381zM9.1 7.322l-.325.234.123-.381-.324-.243h.401l.125-.376.125.376h.401l-.324.243.123.381zM11.3 7.322l-.325.234.123-.381-.324-.243h.401l.125-.376.125.376h.401l-.324.243.123.381zM13.5 7.322l-.325.234.123-.381-.324-.243h.401l.125-.376.125.376h.401l-.324.243.123.381z"/>
  </g>
  <g fill="#fff">
    <path d="m2.5 9.738-.325.235.123-.382-.324-.242h.401l.125-.376.125.376h.401l-.324.242.123.382zM4.7 9.738l-.325.235.123-.382-.324-.242h.401l.125-.376.125.376h.401l-.324.242.123.382zM6.9 9.738l-.325.235.123-.382-.324-.242h.401l.125-.376.125.376h.401l-.324.242.123.382zM9.1 9.738l-.325.235.123-.382-.324-.242h.401l.125-.376.125.376h.401l-.324.242.123.382zM11.3 9.738l-.325.235.123-.382-.324-.242h.401l.125-.376.125.376h.401l-.324.242.123.382zM13.5 9.738l-.325.235.123-.382-.324-.242h.401l.125-.376.125.376h.401l-.324.242.123.382z"/>
  </g>
  <g fill="#fff">
    <path d="m3.6 8.53-.325.235.123-.382-.324-.243h.401l.125-.375.125.375h.401l-.324.243.123.382zM5.8 8.53l-.325.235.123-.382-.324-.243h.401l.125-.375.125.375h.401l-.324.243.123.382zM8 8.53l-.325.235.123-.382-.324-.243h.401L8 7.765l.125.375h.401l-.324.243.123.382zM10.2 8.53l-.325.235.123-.382-.324-.243h.401l.125-.375.125.375h.401l-.324.243.123.382zM12.4 8.53l-.325.235.123-.382-.324-.243h.401l.125-.375.125.375h.401l-.324.243.123.382z"/>
  </g>
  <path fill="#b22234" d="M1 17.62h28V19H1z"/>
</svg>
